<svg xmlns="http://www.w3.org/2000/svg" xmlns:xlink="http://www.w3.org/1999/xlink" version="1.1" x="0px" y="0px" viewBox="0 0 78.735 125" enable-background="new 0 0 78.735 100" xml:space="preserve"><g><polygon points="71.843,6.747 46.56,6.747 46.56,0 32.175,0 32.175,6.747 6.891,6.747 6.891,15.801 71.843,15.801  "/><path d="M71.843,20.682L71.843,20.682l-64.952,0v0H0v9.054h7.458L11.852,100h55.031l4.394-70.264h7.458v-9.054H71.843z    M20.437,90.861L16.62,29.82h8.072l1.27,61.041H20.437z M42.137,90.861h-5.54L35.34,29.82h8.054L42.137,90.861z M58.298,90.861   h-5.524l1.271-61.041h8.071L58.298,90.861z"/></g><text x="0" y="115" fill="#000000" font-size="5px" font-weight="bold" font-family="'Helvetica Neue', Helvetica, Arial-Unicode, Arial, Sans-serif">Created by Ruben Steeman</text><text x="0" y="120" fill="#000000" font-size="5px" font-weight="bold" font-family="'Helvetica Neue', Helvetica, Arial-Unicode, Arial, Sans-serif">from the Noun Project</text></svg>